<?xml version="1.0" standalone="no"?>
<!DOCTYPE svg PUBLIC "-//W3C//DTD SVG 20010904//EN"
 "http://www.w3.org/TR/2001/REC-SVG-20010904/DTD/svg10.dtd">
<svg version="1.0" xmlns="http://www.w3.org/2000/svg"
 width="512.000000pt" height="512.000000pt" viewBox="0 0 512.000000 512.000000"
 preserveAspectRatio="xMidYMid meet">

<g transform="translate(0.000000,512.000000) scale(0.100000,-0.100000)"
fill="#000000" stroke="none">
<path d="M1545 5021 c-56 -25 -102 -67 -125 -112 -19 -37 -1220 -4672 -1220
-4708 0 -11 8 -29 19 -42 16 -20 41 -26 197 -51 211 -33 235 -34 263 -10 17
14 107 350 497 1862 582 2262 724 2819 724 2852 0 157 -204 278 -355 209z"/>
<path d="M2113 4741 c-29 -4 -56 -11 -61 -16 -5 -6 -27 -86 -50 -180 -45 -183
-409 -1592 -417 -1613 -3 -10 18 -11 103 -6 405 24 839 -134 1171 -427 48 -42
116 -95 150 -117 218 -142 598 -211 1006 -183 208 14 394 39 422 57 28 17 7
-55 268 944 118 453 213 832 210 841 -3 9 -14 24 -25 34 -19 17 -25 18 -133 2
-378 -56 -773 -43 -1022 33 -113 35 -212 93 -305 177 -346 316 -719 466 -1145
462 -66 -1 -144 -5 -172 -8z"/>
</g>
</svg>
