<?xml version="1.0" standalone="no"?>
<!DOCTYPE svg PUBLIC "-//W3C//DTD SVG 20010904//EN"
 "http://www.w3.org/TR/2001/REC-SVG-20010904/DTD/svg10.dtd">
<svg version="1.0" xmlns="http://www.w3.org/2000/svg"
 width="32.000000pt" height="32.000000pt" viewBox="0 0 32.000000 32.000000"
 preserveAspectRatio="xMidYMid meet">

<g transform="translate(0.000000,32.000000) scale(0.100000,-0.100000)"
fill="#000000" stroke="none">
<path d="M150 281 c0 -11 -53 -33 -71 -29 -9 2 -13 -4 -11 -14 3 -20 -15 -59
-32 -70 -8 -6 -8 -10 0 -15 17 -12 35 -51 32 -71 -2 -11 3 -16 14 -14 19 3 59
-15 70 -31 4 -6 12 -4 22 6 27 27 56 31 71 10 11 -15 16 -16 27 -5 11 11 10
16 -5 27 -21 15 -17 44 10 71 10 10 12 18 6 22 -16 11 -34 51 -31 70 2 10 -2
16 -11 14 -18 -4 -71 18 -71 29 0 5 -4 9 -10 9 -5 0 -10 -4 -10 -9z m71 -60
c39 -40 39 -82 0 -122 -20 -20 -39 -29 -61 -29 -22 0 -41 9 -61 29 -39 40 -39
82 0 122 20 20 39 29 61 29 22 0 41 -9 61 -29z"/>
<path d="M117 203 c-3 -3 -1 -14 6 -24 9 -15 9 -23 0 -38 -15 -24 -6 -33 18
-18 15 9 23 9 38 0 24 -15 33 -6 18 18 -9 15 -9 23 0 38 15 24 6 33 -18 18
-15 -9 -23 -9 -38 0 -10 7 -21 9 -24 6z m53 -43 c0 -5 -4 -10 -10 -10 -5 0
-10 5 -10 10 0 6 5 10 10 10 6 0 10 -4 10 -10z"/>
</g>
</svg>
